<svg xmlns="http://www.w3.org/2000/svg" xmlns:xlink="http://www.w3.org/1999/xlink" width="40" zoomAndPan="magnify" viewBox="0 0 30 30.000001" height="40" preserveAspectRatio="xMidYMid meet" version="1.0"><defs><g/><clipPath id="ec468ebafa"><path d="M 0.484375 0 L 29.515625 0 L 29.515625 29.03125 L 0.484375 29.03125 Z M 0.484375 0 " clip-rule="nonzero"/></clipPath><clipPath id="25421617e2"><path d="M 0.308594 1 L 3 1 L 3 3 L 0.308594 3 Z M 0.308594 1 " clip-rule="nonzero"/></clipPath><clipPath id="872d5b671d"><path d="M 10 1 L 11.921875 1 L 11.921875 3 L 10 3 Z M 10 1 " clip-rule="nonzero"/></clipPath><clipPath id="18bbbd0128"><rect x="0" width="12" y="0" height="7"/></clipPath><clipPath id="dd91a88f0e"><path d="M 5.757812 1.453125 L 24.242188 1.453125 L 24.242188 20.804688 L 5.757812 20.804688 Z M 5.757812 1.453125 " clip-rule="nonzero"/></clipPath><clipPath id="41921bda6d"><path d="M 15.5 1.460938 C 16.273438 1.503906 16.949219 1.929688 17.03125 2.453125 C 17.101562 3.042969 16.464844 3.523438 15.605469 3.488281 C 14.734375 3.472656 14.042969 2.945312 14.058594 2.347656 C 14.078125 1.820312 14.726562 1.441406 15.5 1.460938 M 18.140625 19.214844 C 18.769531 19.113281 19.152344 19.367188 19.019531 19.75 C 18.890625 20.078125 18.328125 20.421875 17.777344 20.539062 C 17.195312 20.636719 16.761719 20.464844 16.832031 20.117188 C 16.894531 19.71875 17.484375 19.300781 18.140625 19.214844 Z M 20.589844 15.132812 C 20.703125 15.058594 20.824219 14.996094 20.941406 14.949219 C 21.375 14.5625 21.71875 14.011719 21.898438 13.402344 C 22.085938 12.730469 22.0625 12.035156 21.847656 11.460938 C 21.851562 11.46875 21.851562 11.46875 21.851562 11.46875 C 21.46875 10.945312 21.289062 10.1875 21.433594 9.445312 C 21.625 8.328125 22.460938 7.78125 23.242188 8.179688 C 23.90625 8.5625 24.3125 9.632812 24.214844 10.621094 C 24.117188 11.277344 23.808594 11.792969 23.402344 12 C 23.40625 12 23.40625 12 23.40625 12 C 23.058594 12.363281 22.753906 12.929688 22.578125 13.566406 C 22.476562 13.914062 22.417969 14.253906 22.410156 14.570312 C 22.367188 15.277344 22.589844 15.183594 22.65625 15.679688 C 22.703125 16.09375 22.542969 16.621094 22.210938 17.117188 C 21.738281 17.792969 20.972656 18.3125 20.3125 18.347656 C 18.875 18.300781 19.648438 17.128906 18.933594 16.332031 C 18.757812 16.128906 18.53125 15.953125 18.261719 15.816406 C 17.945312 15.660156 17.59375 15.558594 17.226562 15.527344 C 15.941406 15.390625 15.019531 16.058594 14.664062 17.222656 C 14.566406 17.519531 14.542969 17.8125 14.574219 18.085938 C 14.59375 18.296875 14.835938 18.824219 14.835938 18.824219 C 15.289062 19.183594 15.464844 19.660156 15.265625 20.085938 C 14.960938 20.648438 13.96875 20.90625 12.992188 20.726562 C 12.015625 20.492188 11.296875 19.855469 11.414062 19.234375 C 11.476562 18.949219 11.679688 18.710938 11.976562 18.542969 C 12.496094 18.230469 12.640625 18.429688 13.179688 17.882812 C 13.402344 17.636719 13.578125 17.332031 13.679688 16.988281 C 14.246094 14.972656 12.457031 14.757812 12.90625 12.988281 C 13.234375 11.730469 14.539062 10.976562 15.8125 11.316406 C 15.816406 11.316406 15.816406 11.316406 15.816406 11.316406 C 16.035156 11.371094 16.246094 11.453125 16.445312 11.570312 C 18.09375 12.523438 16.871094 13.917969 18.796875 14.96875 C 19.367188 15.265625 20.011719 15.320312 20.59375 15.128906 C 20.589844 15.132812 20.589844 15.132812 20.589844 15.132812 Z M 11.6875 7.441406 C 12.640625 7.957031 13.488281 7.875 14.222656 7.203125 C 14.949219 6.546875 14.648438 6.46875 15.128906 5.878906 C 15.375 5.582031 15.734375 5.363281 16.3125 5.238281 C 18.910156 4.785156 20.269531 8.84375 17.605469 9.53125 C 16.898438 9.714844 16.386719 9.625 15.941406 9.367188 C 15.265625 8.980469 15.578125 8.917969 14.679688 8.683594 C 13.664062 8.425781 12.898438 8.785156 12.285156 9.769531 C 12.050781 10.570312 11.429688 11.195312 10.664062 11.394531 C 10.664062 11.394531 10.664062 11.394531 10.660156 11.394531 C 9.519531 11.714844 8.414062 10.988281 8.15625 9.800781 C 8.011719 9.0625 8.234375 8.300781 8.691406 7.746094 C 9.410156 6.914062 9.726562 6.746094 9.894531 5.542969 C 9.957031 5.144531 9.929688 4.78125 9.804688 4.492188 C 9.625 4.035156 9.503906 4.144531 9.246094 3.894531 C 9.023438 3.679688 8.945312 3.378906 9.0625 3.023438 C 9.308594 2.382812 10.199219 1.742188 11.097656 1.53125 C 12.058594 1.367188 12.785156 1.742188 12.707031 2.4375 C 12.675781 2.71875 12.539062 2.996094 12.320312 3.25 C 11.820312 3.851562 11.582031 3.65625 11.125 4.457031 C 10.960938 4.765625 10.851562 5.105469 10.820312 5.457031 C 10.742188 6.457031 11.035156 6.855469 11.6875 7.441406 Z M 7.675781 12.847656 C 8.65625 12.902344 9.558594 13.886719 9.632812 15.011719 C 9.738281 16.082031 9.03125 16.773438 8.117188 16.609375 C 7.292969 16.417969 6.542969 15.527344 6.371094 14.574219 C 6.242188 13.574219 6.796875 12.777344 7.675781 12.847656 Z M 6.9375 5.1875 C 7.480469 5.027344 7.851562 5.445312 7.730469 6.152344 C 7.628906 6.890625 7.042969 7.585938 6.464844 7.679688 C 5.949219 7.773438 5.667969 7.292969 5.808594 6.621094 C 5.964844 5.988281 6.453125 5.359375 6.9375 5.1875 Z M 20.78125 3.878906 C 21.28125 4.015625 21.785156 4.53125 21.917969 5.035156 C 22.046875 5.585938 21.734375 5.960938 21.195312 5.859375 C 20.625 5.769531 20.066406 5.203125 19.976562 4.621094 C 19.878906 4.074219 20.242188 3.746094 20.78125 3.878906 Z M 20.78125 3.878906 " clip-rule="nonzero"/></clipPath><linearGradient x1="435.933884" gradientTransform="matrix(0.0432918, 0, 0, -0.0432918, 5.669337, 59.388697)" y1="1331.20752" x2="-4.950026" gradientUnits="userSpaceOnUse" y2="898.348841" id="c4e7846882"><stop stop-opacity="1" stop-color="rgb(5.099487%, 93.728638%, 96.469116%)" offset="0"/><stop stop-opacity="1" stop-color="rgb(5.099487%, 93.728638%, 96.469116%)" offset="0.125"/><stop stop-opacity="1" stop-color="rgb(5.099487%, 93.728638%, 96.469116%)" offset="0.1875"/><stop stop-opacity="1" stop-color="rgb(5.099487%, 93.728638%, 96.469116%)" offset="0.21875"/><stop stop-opacity="1" stop-color="rgb(5.099487%, 93.728638%, 96.469116%)" offset="0.226562"/><stop stop-opacity="1" stop-color="rgb(5.487061%, 93.34259%, 96.473694%)" offset="0.230469"/><stop stop-opacity="1" stop-color="rgb(5.874634%, 92.958069%, 96.478271%)" offset="0.234375"/><stop stop-opacity="1" stop-color="rgb(6.521606%, 92.312622%, 96.485901%)" offset="0.238281"/><stop stop-opacity="1" stop-color="rgb(7.168579%, 91.668701%, 96.495056%)" offset="0.242188"/><stop stop-opacity="1" stop-color="rgb(7.815552%, 91.023254%, 96.502686%)" offset="0.246094"/><stop stop-opacity="1" stop-color="rgb(8.462524%, 90.379333%, 96.511841%)" offset="0.25"/><stop stop-opacity="1" stop-color="rgb(9.109497%, 89.733887%, 96.51947%)" offset="0.253906"/><stop stop-opacity="1" stop-color="rgb(9.75647%, 89.089966%, 96.528625%)" offset="0.257812"/><stop stop-opacity="1" stop-color="rgb(10.403442%, 88.446045%, 96.536255%)" offset="0.261719"/><stop stop-opacity="1" stop-color="rgb(11.051941%, 87.802124%, 96.543884%)" offset="0.265625"/><stop stop-opacity="1" stop-color="rgb(11.698914%, 87.156677%, 96.551514%)" offset="0.269531"/><stop stop-opacity="1" stop-color="rgb(12.345886%, 86.512756%, 96.560669%)" offset="0.273438"/><stop stop-opacity="1" stop-color="rgb(12.992859%, 85.86731%, 96.568298%)" offset="0.277344"/><stop stop-opacity="1" stop-color="rgb(13.639832%, 85.223389%, 96.577454%)" offset="0.28125"/><stop stop-opacity="1" stop-color="rgb(14.286804%, 84.577942%, 96.585083%)" offset="0.285156"/><stop stop-opacity="1" stop-color="rgb(14.933777%, 83.934021%, 96.592712%)" offset="0.289062"/><stop stop-opacity="1" stop-color="rgb(15.58075%, 83.288574%, 96.600342%)" offset="0.292969"/><stop stop-opacity="1" stop-color="rgb(16.227722%, 82.644653%, 96.609497%)" offset="0.296875"/><stop stop-opacity="1" stop-color="rgb(16.874695%, 82.000732%, 96.617126%)" offset="0.300781"/><stop stop-opacity="1" stop-color="rgb(17.523193%, 81.356812%, 96.626282%)" offset="0.304688"/><stop stop-opacity="1" stop-color="rgb(18.170166%, 80.711365%, 96.633911%)" offset="0.308594"/><stop stop-opacity="1" stop-color="rgb(18.817139%, 80.067444%, 96.641541%)" offset="0.3125"/><stop stop-opacity="1" stop-color="rgb(19.464111%, 79.421997%, 96.64917%)" offset="0.316406"/><stop stop-opacity="1" stop-color="rgb(20.111084%, 78.778076%, 96.658325%)" offset="0.320312"/><stop stop-opacity="1" stop-color="rgb(20.758057%, 78.132629%, 96.665955%)" offset="0.324219"/><stop stop-opacity="1" stop-color="rgb(21.405029%, 77.488708%, 96.67511%)" offset="0.328125"/><stop stop-opacity="1" stop-color="rgb(22.052002%, 76.844788%, 96.682739%)" offset="0.332031"/><stop stop-opacity="1" stop-color="rgb(22.698975%, 76.200867%, 96.690369%)" offset="0.335938"/><stop stop-opacity="1" stop-color="rgb(23.345947%, 75.55542%, 96.697998%)" offset="0.339844"/><stop stop-opacity="1" stop-color="rgb(23.994446%, 74.911499%, 96.707153%)" offset="0.34375"/><stop stop-opacity="1" stop-color="rgb(24.641418%, 74.266052%, 96.714783%)" offset="0.347656"/><stop stop-opacity="1" stop-color="rgb(25.288391%, 73.622131%, 96.723938%)" offset="0.351562"/><stop stop-opacity="1" stop-color="rgb(25.935364%, 72.976685%, 96.731567%)" offset="0.355469"/><stop stop-opacity="1" stop-color="rgb(26.582336%, 72.332764%, 96.739197%)" offset="0.359375"/><stop stop-opacity="1" stop-color="rgb(27.229309%, 71.688843%, 96.746826%)" offset="0.363281"/><stop stop-opacity="1" stop-color="rgb(27.876282%, 71.044922%, 96.755981%)" offset="0.367188"/><stop stop-opacity="1" stop-color="rgb(28.523254%, 70.399475%, 96.763611%)" offset="0.371094"/><stop stop-opacity="1" stop-color="rgb(29.170227%, 69.755554%, 96.772766%)" offset="0.375"/><stop stop-opacity="1" stop-color="rgb(29.8172%, 69.110107%, 96.780396%)" offset="0.378906"/><stop stop-opacity="1" stop-color="rgb(30.465698%, 68.466187%, 96.788025%)" offset="0.382812"/><stop stop-opacity="1" stop-color="rgb(31.112671%, 67.82074%, 96.795654%)" offset="0.386719"/><stop stop-opacity="1" stop-color="rgb(31.759644%, 67.176819%, 96.80481%)" offset="0.390625"/><stop stop-opacity="1" stop-color="rgb(32.406616%, 66.531372%, 96.812439%)" offset="0.394531"/><stop stop-opacity="1" stop-color="rgb(33.053589%, 65.887451%, 96.821594%)" offset="0.398438"/><stop stop-opacity="1" stop-color="rgb(33.700562%, 65.24353%, 96.829224%)" offset="0.402344"/><stop stop-opacity="1" stop-color="rgb(34.347534%, 64.599609%, 96.836853%)" offset="0.40625"/><stop stop-opacity="1" stop-color="rgb(34.994507%, 63.954163%, 96.844482%)" offset="0.410156"/><stop stop-opacity="1" stop-color="rgb(35.641479%, 63.310242%, 96.853638%)" offset="0.414063"/><stop stop-opacity="1" stop-color="rgb(36.288452%, 62.664795%, 96.861267%)" offset="0.417969"/><stop stop-opacity="1" stop-color="rgb(36.936951%, 62.020874%, 96.870422%)" offset="0.421875"/><stop stop-opacity="1" stop-color="rgb(37.583923%, 61.375427%, 96.878052%)" offset="0.425781"/><stop stop-opacity="1" stop-color="rgb(38.230896%, 60.731506%, 96.885681%)" offset="0.429688"/><stop stop-opacity="1" stop-color="rgb(38.877869%, 60.087585%, 96.893311%)" offset="0.433594"/><stop stop-opacity="1" stop-color="rgb(39.524841%, 59.443665%, 96.902466%)" offset="0.4375"/><stop stop-opacity="1" stop-color="rgb(40.171814%, 58.798218%, 96.910095%)" offset="0.441406"/><stop stop-opacity="1" stop-color="rgb(40.818787%, 58.154297%, 96.91925%)" offset="0.445312"/><stop stop-opacity="1" stop-color="rgb(41.465759%, 57.50885%, 96.92688%)" offset="0.449219"/><stop stop-opacity="1" stop-color="rgb(42.114258%, 56.864929%, 96.936035%)" offset="0.453125"/><stop stop-opacity="1" stop-color="rgb(42.76123%, 56.219482%, 96.943665%)" offset="0.457031"/><stop stop-opacity="1" stop-color="rgb(43.408203%, 55.575562%, 96.951294%)" offset="0.460938"/><stop stop-opacity="1" stop-color="rgb(44.055176%, 54.931641%, 96.958923%)" offset="0.464844"/><stop stop-opacity="1" stop-color="rgb(44.702148%, 54.28772%, 96.968079%)" offset="0.46875"/><stop stop-opacity="1" stop-color="rgb(45.349121%, 53.642273%, 96.975708%)" offset="0.472656"/><stop stop-opacity="1" stop-color="rgb(45.996094%, 52.998352%, 96.984863%)" offset="0.476562"/><stop stop-opacity="1" stop-color="rgb(46.643066%, 52.352905%, 96.992493%)" offset="0.480469"/><stop stop-opacity="1" stop-color="rgb(47.290039%, 51.708984%, 97.000122%)" offset="0.484375"/><stop stop-opacity="1" stop-color="rgb(47.937012%, 51.063538%, 97.007751%)" offset="0.488281"/><stop stop-opacity="1" stop-color="rgb(48.58551%, 50.419617%, 97.016907%)" offset="0.492188"/><stop stop-opacity="1" stop-color="rgb(49.232483%, 49.77417%, 97.024536%)" offset="0.496094"/><stop stop-opacity="1" stop-color="rgb(49.879456%, 49.130249%, 97.033691%)" offset="0.5"/><stop stop-opacity="1" stop-color="rgb(50.526428%, 48.486328%, 97.041321%)" offset="0.503906"/><stop stop-opacity="1" stop-color="rgb(51.173401%, 47.842407%, 97.04895%)" offset="0.507812"/><stop stop-opacity="1" stop-color="rgb(51.820374%, 47.19696%, 97.05658%)" offset="0.511719"/><stop stop-opacity="1" stop-color="rgb(52.467346%, 46.55304%, 97.065735%)" offset="0.515625"/><stop stop-opacity="1" stop-color="rgb(53.114319%, 45.907593%, 97.073364%)" offset="0.519531"/><stop stop-opacity="1" stop-color="rgb(53.761292%, 45.263672%, 97.08252%)" offset="0.523438"/><stop stop-opacity="1" stop-color="rgb(54.408264%, 44.618225%, 97.090149%)" offset="0.527344"/><stop stop-opacity="1" stop-color="rgb(55.056763%, 43.974304%, 97.097778%)" offset="0.53125"/><stop stop-opacity="1" stop-color="rgb(55.703735%, 43.330383%, 97.105408%)" offset="0.535156"/><stop stop-opacity="1" stop-color="rgb(56.350708%, 42.686462%, 97.114563%)" offset="0.539062"/><stop stop-opacity="1" stop-color="rgb(56.997681%, 42.041016%, 97.122192%)" offset="0.542969"/><stop stop-opacity="1" stop-color="rgb(57.644653%, 41.397095%, 97.131348%)" offset="0.546875"/><stop stop-opacity="1" stop-color="rgb(58.291626%, 40.751648%, 97.138977%)" offset="0.550781"/><stop stop-opacity="1" stop-color="rgb(58.938599%, 40.107727%, 97.146606%)" offset="0.554688"/><stop stop-opacity="1" stop-color="rgb(59.585571%, 39.46228%, 97.154236%)" offset="0.558594"/><stop stop-opacity="1" stop-color="rgb(60.232544%, 38.818359%, 97.163391%)" offset="0.5625"/><stop stop-opacity="1" stop-color="rgb(60.879517%, 38.174438%, 97.171021%)" offset="0.566406"/><stop stop-opacity="1" stop-color="rgb(61.528015%, 37.530518%, 97.180176%)" offset="0.570312"/><stop stop-opacity="1" stop-color="rgb(62.174988%, 36.885071%, 97.187805%)" offset="0.574219"/><stop stop-opacity="1" stop-color="rgb(62.82196%, 36.24115%, 97.195435%)" offset="0.578125"/><stop stop-opacity="1" stop-color="rgb(63.468933%, 35.595703%, 97.203064%)" offset="0.582031"/><stop stop-opacity="1" stop-color="rgb(64.115906%, 34.951782%, 97.212219%)" offset="0.585937"/><stop stop-opacity="1" stop-color="rgb(64.762878%, 34.306335%, 97.219849%)" offset="0.589844"/><stop stop-opacity="1" stop-color="rgb(65.409851%, 33.662415%, 97.229004%)" offset="0.59375"/><stop stop-opacity="1" stop-color="rgb(66.056824%, 33.016968%, 97.236633%)" offset="0.597656"/><stop stop-opacity="1" stop-color="rgb(66.703796%, 32.373047%, 97.244263%)" offset="0.601562"/><stop stop-opacity="1" stop-color="rgb(67.350769%, 31.729126%, 97.251892%)" offset="0.605469"/><stop stop-opacity="1" stop-color="rgb(67.999268%, 31.085205%, 97.261047%)" offset="0.609375"/><stop stop-opacity="1" stop-color="rgb(68.64624%, 30.439758%, 97.268677%)" offset="0.613281"/><stop stop-opacity="1" stop-color="rgb(69.293213%, 29.795837%, 97.277832%)" offset="0.617188"/><stop stop-opacity="1" stop-color="rgb(69.940186%, 29.150391%, 97.285461%)" offset="0.621094"/><stop stop-opacity="1" stop-color="rgb(70.587158%, 28.50647%, 97.293091%)" offset="0.625"/><stop stop-opacity="1" stop-color="rgb(71.234131%, 27.861023%, 97.30072%)" offset="0.628906"/><stop stop-opacity="1" stop-color="rgb(71.881104%, 27.217102%, 97.309875%)" offset="0.632812"/><stop stop-opacity="1" stop-color="rgb(72.528076%, 26.573181%, 97.317505%)" offset="0.636719"/><stop stop-opacity="1" stop-color="rgb(73.175049%, 25.92926%, 97.32666%)" offset="0.640625"/><stop stop-opacity="1" stop-color="rgb(73.822021%, 25.283813%, 97.33429%)" offset="0.644531"/><stop stop-opacity="1" stop-color="rgb(74.47052%, 24.639893%, 97.341919%)" offset="0.648438"/><stop stop-opacity="1" stop-color="rgb(75.117493%, 23.994446%, 97.349548%)" offset="0.652344"/><stop stop-opacity="1" stop-color="rgb(75.764465%, 23.350525%, 97.358704%)" offset="0.65625"/><stop stop-opacity="1" stop-color="rgb(76.411438%, 22.705078%, 97.366333%)" offset="0.660156"/><stop stop-opacity="1" stop-color="rgb(77.058411%, 22.061157%, 97.375488%)" offset="0.664062"/><stop stop-opacity="1" stop-color="rgb(77.705383%, 21.417236%, 97.383118%)" offset="0.667969"/><stop stop-opacity="1" stop-color="rgb(78.352356%, 20.773315%, 97.392273%)" offset="0.671875"/><stop stop-opacity="1" stop-color="rgb(78.999329%, 20.127869%, 97.399902%)" offset="0.675781"/><stop stop-opacity="1" stop-color="rgb(79.647827%, 19.483948%, 97.407532%)" offset="0.679687"/><stop stop-opacity="1" stop-color="rgb(80.2948%, 18.838501%, 97.415161%)" offset="0.683594"/><stop stop-opacity="1" stop-color="rgb(80.941772%, 18.19458%, 97.424316%)" offset="0.6875"/><stop stop-opacity="1" stop-color="rgb(81.588745%, 17.549133%, 97.431946%)" offset="0.691406"/><stop stop-opacity="1" stop-color="rgb(82.235718%, 16.905212%, 97.441101%)" offset="0.695312"/><stop stop-opacity="1" stop-color="rgb(82.88269%, 16.259766%, 97.44873%)" offset="0.699219"/><stop stop-opacity="1" stop-color="rgb(83.529663%, 15.615845%, 97.45636%)" offset="0.703125"/><stop stop-opacity="1" stop-color="rgb(84.176636%, 14.971924%, 97.463989%)" offset="0.707031"/><stop stop-opacity="1" stop-color="rgb(84.823608%, 14.328003%, 97.473145%)" offset="0.710938"/><stop stop-opacity="1" stop-color="rgb(85.470581%, 13.682556%, 97.480774%)" offset="0.714844"/><stop stop-opacity="1" stop-color="rgb(86.11908%, 13.038635%, 97.489929%)" offset="0.71875"/><stop stop-opacity="1" stop-color="rgb(86.766052%, 12.393188%, 97.497559%)" offset="0.722656"/><stop stop-opacity="1" stop-color="rgb(87.413025%, 11.749268%, 97.505188%)" offset="0.726562"/><stop stop-opacity="1" stop-color="rgb(88.059998%, 11.103821%, 97.512817%)" offset="0.730469"/><stop stop-opacity="1" stop-color="rgb(88.70697%, 10.4599%, 97.521973%)" offset="0.734375"/><stop stop-opacity="1" stop-color="rgb(89.353943%, 9.815979%, 97.529602%)" offset="0.738281"/><stop stop-opacity="1" stop-color="rgb(90.000916%, 9.172058%, 97.538757%)" offset="0.742188"/><stop stop-opacity="1" stop-color="rgb(90.647888%, 8.526611%, 97.546387%)" offset="0.746094"/><stop stop-opacity="1" stop-color="rgb(91.294861%, 7.88269%, 97.554016%)" offset="0.75"/><stop stop-opacity="1" stop-color="rgb(91.941833%, 7.237244%, 97.561646%)" offset="0.753906"/><stop stop-opacity="1" stop-color="rgb(92.590332%, 6.593323%, 97.570801%)" offset="0.757812"/><stop stop-opacity="1" stop-color="rgb(93.237305%, 5.947876%, 97.57843%)" offset="0.761719"/><stop stop-opacity="1" stop-color="rgb(93.884277%, 5.303955%, 97.587585%)" offset="0.765625"/><stop stop-opacity="1" stop-color="rgb(94.53125%, 4.660034%, 97.595215%)" offset="0.769531"/><stop stop-opacity="1" stop-color="rgb(95.178223%, 4.016113%, 97.602844%)" offset="0.773437"/><stop stop-opacity="1" stop-color="rgb(95.825195%, 3.370667%, 97.610474%)" offset="0.777344"/><stop stop-opacity="1" stop-color="rgb(96.472168%, 2.726746%, 97.619629%)" offset="0.78125"/><stop stop-opacity="1" stop-color="rgb(97.119141%, 2.081299%, 97.627258%)" offset="0.785156"/><stop stop-opacity="1" stop-color="rgb(97.766113%, 1.437378%, 97.636414%)" offset="0.789062"/><stop stop-opacity="1" stop-color="rgb(98.292542%, 0.912476%, 97.642517%)" offset="0.792969"/><stop stop-opacity="1" stop-color="rgb(98.81897%, 0.389099%, 97.648621%)" offset="0.796875"/><stop stop-opacity="1" stop-color="rgb(98.81897%, 0.389099%, 97.648621%)" offset="0.8125"/><stop stop-opacity="1" stop-color="rgb(98.81897%, 0.389099%, 97.648621%)" offset="0.875"/><stop stop-opacity="1" stop-color="rgb(98.81897%, 0.389099%, 97.648621%)" offset="1"/></linearGradient></defs><g clip-path="url(#ec468ebafa)"><path fill="#ffffff" d="M 0.484375 0 L 29.515625 0 L 29.515625 29.03125 L 0.484375 29.03125 Z M 0.484375 0 " fill-opacity="1" fill-rule="nonzero"/><path fill="#02182e" d="M 0.484375 0 L 29.515625 0 L 29.515625 29.03125 L 0.484375 29.03125 Z M 0.484375 0 " fill-opacity="1" fill-rule="nonzero"/></g><g transform="matrix(1, 0, 0, 1, 9, 20)"><g clip-path="url(#18bbbd0128)"><g clip-path="url(#25421617e2)"><g fill="#ffffff" fill-opacity="1"><g transform="translate(0.601033, 2.848124)"><g><path d="M 1.3125 -0.125 C 1.25 -0.0703125 1.164062 -0.03125 1.0625 0 C 0.96875 0.0195312 0.84375 0.03125 0.6875 0.03125 C 0.539062 0.03125 0.382812 0.015625 0.21875 -0.015625 L 0.21875 -1.734375 C 0.394531 -1.753906 0.539062 -1.765625 0.65625 -1.765625 C 0.78125 -1.765625 0.882812 -1.753906 0.96875 -1.734375 C 1.050781 -1.710938 1.113281 -1.679688 1.15625 -1.640625 C 1.257812 -1.554688 1.3125 -1.453125 1.3125 -1.328125 C 1.3125 -1.210938 1.265625 -1.113281 1.171875 -1.03125 C 1.285156 -1 1.367188 -0.9375 1.421875 -0.84375 C 1.472656 -0.757812 1.5 -0.664062 1.5 -0.5625 C 1.5 -0.46875 1.484375 -0.382812 1.453125 -0.3125 C 1.429688 -0.238281 1.382812 -0.175781 1.3125 -0.125 Z M 0.5625 -1.078125 C 0.601562 -1.066406 0.648438 -1.0625 0.703125 -1.0625 C 0.765625 -1.0625 0.8125 -1.066406 0.84375 -1.078125 C 0.875 -1.097656 0.898438 -1.117188 0.921875 -1.140625 C 0.953125 -1.179688 0.96875 -1.234375 0.96875 -1.296875 C 0.96875 -1.429688 0.890625 -1.5 0.734375 -1.5 C 0.671875 -1.5 0.613281 -1.492188 0.5625 -1.484375 Z M 0.765625 -0.796875 C 0.691406 -0.796875 0.625 -0.789062 0.5625 -0.78125 L 0.5625 -0.265625 C 0.625 -0.253906 0.6875 -0.25 0.75 -0.25 C 0.820312 -0.25 0.882812 -0.253906 0.9375 -0.265625 C 0.988281 -0.285156 1.03125 -0.3125 1.0625 -0.34375 C 1.132812 -0.394531 1.171875 -0.46875 1.171875 -0.5625 C 1.171875 -0.71875 1.035156 -0.796875 0.765625 -0.796875 Z M 0.765625 -0.796875 "/></g></g></g></g><g fill="#ffffff" fill-opacity="1"><g transform="translate(2.536116, 2.848124)"><g><path d="M 1.21875 -1.734375 C 1.269531 -1.734375 1.3125 -1.734375 1.34375 -1.734375 L 1.453125 -1.734375 C 1.492188 -1.734375 1.535156 -1.738281 1.578125 -1.75 L 1.578125 -0.671875 C 1.578125 -0.453125 1.507812 -0.28125 1.375 -0.15625 C 1.25 -0.03125 1.097656 0.03125 0.921875 0.03125 C 0.710938 0.03125 0.546875 -0.0195312 0.421875 -0.125 C 0.285156 -0.238281 0.21875 -0.410156 0.21875 -0.640625 L 0.21875 -1.734375 C 0.289062 -1.734375 0.359375 -1.734375 0.421875 -1.734375 C 0.484375 -1.734375 0.535156 -1.738281 0.578125 -1.75 L 0.578125 -0.625 C 0.578125 -0.507812 0.609375 -0.421875 0.671875 -0.359375 C 0.734375 -0.304688 0.8125 -0.28125 0.90625 -0.28125 C 1.050781 -0.28125 1.144531 -0.351562 1.1875 -0.5 C 1.207031 -0.550781 1.21875 -0.613281 1.21875 -0.6875 Z M 1.21875 -1.734375 "/></g></g></g><g fill="#ffffff" fill-opacity="1"><g transform="translate(4.694219, 2.848124)"><g><path d="M 1.3125 -0.125 C 1.25 -0.0703125 1.164062 -0.03125 1.0625 0 C 0.96875 0.0195312 0.84375 0.03125 0.6875 0.03125 C 0.539062 0.03125 0.382812 0.015625 0.21875 -0.015625 L 0.21875 -1.734375 C 0.394531 -1.753906 0.539062 -1.765625 0.65625 -1.765625 C 0.78125 -1.765625 0.882812 -1.753906 0.96875 -1.734375 C 1.050781 -1.710938 1.113281 -1.679688 1.15625 -1.640625 C 1.257812 -1.554688 1.3125 -1.453125 1.3125 -1.328125 C 1.3125 -1.210938 1.265625 -1.113281 1.171875 -1.03125 C 1.285156 -1 1.367188 -0.9375 1.421875 -0.84375 C 1.472656 -0.757812 1.5 -0.664062 1.5 -0.5625 C 1.5 -0.46875 1.484375 -0.382812 1.453125 -0.3125 C 1.429688 -0.238281 1.382812 -0.175781 1.3125 -0.125 Z M 0.5625 -1.078125 C 0.601562 -1.066406 0.648438 -1.0625 0.703125 -1.0625 C 0.765625 -1.0625 0.8125 -1.066406 0.84375 -1.078125 C 0.875 -1.097656 0.898438 -1.117188 0.921875 -1.140625 C 0.953125 -1.179688 0.96875 -1.234375 0.96875 -1.296875 C 0.96875 -1.429688 0.890625 -1.5 0.734375 -1.5 C 0.671875 -1.5 0.613281 -1.492188 0.5625 -1.484375 Z M 0.765625 -0.796875 C 0.691406 -0.796875 0.625 -0.789062 0.5625 -0.78125 L 0.5625 -0.265625 C 0.625 -0.253906 0.6875 -0.25 0.75 -0.25 C 0.820312 -0.25 0.882812 -0.253906 0.9375 -0.265625 C 0.988281 -0.285156 1.03125 -0.3125 1.0625 -0.34375 C 1.132812 -0.394531 1.171875 -0.46875 1.171875 -0.5625 C 1.171875 -0.71875 1.035156 -0.796875 0.765625 -0.796875 Z M 0.765625 -0.796875 "/></g></g></g><g fill="#ffffff" fill-opacity="1"><g transform="translate(6.629303, 2.848124)"><g><path d="M 1.3125 -0.125 C 1.25 -0.0703125 1.164062 -0.03125 1.0625 0 C 0.96875 0.0195312 0.84375 0.03125 0.6875 0.03125 C 0.539062 0.03125 0.382812 0.015625 0.21875 -0.015625 L 0.21875 -1.734375 C 0.394531 -1.753906 0.539062 -1.765625 0.65625 -1.765625 C 0.78125 -1.765625 0.882812 -1.753906 0.96875 -1.734375 C 1.050781 -1.710938 1.113281 -1.679688 1.15625 -1.640625 C 1.257812 -1.554688 1.3125 -1.453125 1.3125 -1.328125 C 1.3125 -1.210938 1.265625 -1.113281 1.171875 -1.03125 C 1.285156 -1 1.367188 -0.9375 1.421875 -0.84375 C 1.472656 -0.757812 1.5 -0.664062 1.5 -0.5625 C 1.5 -0.46875 1.484375 -0.382812 1.453125 -0.3125 C 1.429688 -0.238281 1.382812 -0.175781 1.3125 -0.125 Z M 0.5625 -1.078125 C 0.601562 -1.066406 0.648438 -1.0625 0.703125 -1.0625 C 0.765625 -1.0625 0.8125 -1.066406 0.84375 -1.078125 C 0.875 -1.097656 0.898438 -1.117188 0.921875 -1.140625 C 0.953125 -1.179688 0.96875 -1.234375 0.96875 -1.296875 C 0.96875 -1.429688 0.890625 -1.5 0.734375 -1.5 C 0.671875 -1.5 0.613281 -1.492188 0.5625 -1.484375 Z M 0.765625 -0.796875 C 0.691406 -0.796875 0.625 -0.789062 0.5625 -0.78125 L 0.5625 -0.265625 C 0.625 -0.253906 0.6875 -0.25 0.75 -0.25 C 0.820312 -0.25 0.882812 -0.253906 0.9375 -0.265625 C 0.988281 -0.285156 1.03125 -0.3125 1.0625 -0.34375 C 1.132812 -0.394531 1.171875 -0.46875 1.171875 -0.5625 C 1.171875 -0.71875 1.035156 -0.796875 0.765625 -0.796875 Z M 0.765625 -0.796875 "/></g></g></g><g fill="#ffffff" fill-opacity="1"><g transform="translate(8.564386, 2.848124)"><g><path d="M 0.484375 0 C 0.347656 0 0.257812 0.00390625 0.21875 0.015625 L 0.21875 -1.75 C 0.238281 -1.738281 0.28125 -1.734375 0.34375 -1.734375 C 0.414062 -1.734375 0.492188 -1.734375 0.578125 -1.734375 L 0.578125 -0.3125 L 0.859375 -0.3125 C 0.929688 -0.3125 0.992188 -0.316406 1.046875 -0.328125 C 1.035156 -0.117188 1.03125 -0.0078125 1.03125 0 L 1.03125 0.015625 C 0.945312 0.00390625 0.804688 0 0.609375 0 Z M 0.484375 0 "/></g></g></g><g clip-path="url(#872d5b671d)"><g fill="#ffffff" fill-opacity="1"><g transform="translate(10.053428, 2.848124)"><g><path d="M 1.09375 -0.3125 C 1.144531 -0.3125 1.179688 -0.316406 1.203125 -0.328125 L 1.21875 -0.328125 L 1.203125 0 L 0.21875 0 L 0.21875 -1.75 C 0.25 -1.738281 0.273438 -1.734375 0.296875 -1.734375 L 0.390625 -1.734375 C 0.453125 -1.734375 0.519531 -1.734375 0.59375 -1.734375 C 0.789062 -1.734375 0.988281 -1.738281 1.1875 -1.75 C 1.175781 -1.664062 1.171875 -1.5625 1.171875 -1.4375 C 1.171875 -1.425781 1.171875 -1.414062 1.171875 -1.40625 C 1.117188 -1.414062 1.050781 -1.421875 0.96875 -1.421875 L 0.5625 -1.421875 L 0.5625 -1.09375 L 0.875 -1.09375 C 0.96875 -1.09375 1.023438 -1.09375 1.046875 -1.09375 L 1.046875 -0.78125 C 1.003906 -0.78125 0.953125 -0.78125 0.890625 -0.78125 L 0.5625 -0.78125 L 0.5625 -0.3125 Z M 1.09375 -0.3125 "/></g></g></g></g><g fill="#ffffff" fill-opacity="1"><g transform="translate(2.433885, 5.073978)"><g><path d="M 0.84375 0.015625 C 0.800781 0.00390625 0.695312 0 0.53125 0 L 0.484375 0 L 0.484375 -1.4375 L 0.234375 -1.4375 C 0.148438 -1.4375 0.101562 -1.429688 0.09375 -1.421875 C 0.0820312 -1.421875 0.0703125 -1.414062 0.0625 -1.40625 L 0.0625 -1.75 C 0.09375 -1.738281 0.171875 -1.734375 0.296875 -1.734375 L 1.109375 -1.734375 C 1.179688 -1.734375 1.222656 -1.738281 1.234375 -1.75 C 1.253906 -1.757812 1.269531 -1.765625 1.28125 -1.765625 L 1.28125 -1.421875 C 1.25 -1.429688 1.171875 -1.4375 1.046875 -1.4375 L 0.84375 -1.4375 Z M 0.84375 0.015625 "/></g></g></g><g fill="#ffffff" fill-opacity="1"><g transform="translate(4.145948, 5.073978)"><g><path d="M 1.09375 -0.3125 C 1.144531 -0.3125 1.179688 -0.316406 1.203125 -0.328125 L 1.21875 -0.328125 L 1.203125 0 L 0.21875 0 L 0.21875 -1.75 C 0.25 -1.738281 0.273438 -1.734375 0.296875 -1.734375 L 0.390625 -1.734375 C 0.453125 -1.734375 0.519531 -1.734375 0.59375 -1.734375 C 0.789062 -1.734375 0.988281 -1.738281 1.1875 -1.75 C 1.175781 -1.664062 1.171875 -1.5625 1.171875 -1.4375 C 1.171875 -1.425781 1.171875 -1.414062 1.171875 -1.40625 C 1.117188 -1.414062 1.050781 -1.421875 0.96875 -1.421875 L 0.5625 -1.421875 L 0.5625 -1.09375 L 0.875 -1.09375 C 0.96875 -1.09375 1.023438 -1.09375 1.046875 -1.09375 L 1.046875 -0.78125 C 1.003906 -0.78125 0.953125 -0.78125 0.890625 -0.78125 L 0.5625 -0.78125 L 0.5625 -0.3125 Z M 1.09375 -0.3125 "/></g></g></g><g fill="#ffffff" fill-opacity="1"><g transform="translate(5.858011, 5.073978)"><g><path d="M 1 -1.765625 C 1.164062 -1.765625 1.304688 -1.738281 1.421875 -1.6875 L 1.421875 -1.28125 C 1.367188 -1.351562 1.265625 -1.40625 1.109375 -1.4375 C 1.054688 -1.4375 0.992188 -1.4375 0.921875 -1.4375 C 0.859375 -1.4375 0.789062 -1.421875 0.71875 -1.390625 C 0.65625 -1.367188 0.601562 -1.332031 0.5625 -1.28125 C 0.476562 -1.1875 0.4375 -1.054688 0.4375 -0.890625 C 0.4375 -0.679688 0.488281 -0.523438 0.59375 -0.421875 C 0.675781 -0.335938 0.789062 -0.296875 0.9375 -0.296875 C 1.101562 -0.296875 1.238281 -0.332031 1.34375 -0.40625 C 1.382812 -0.425781 1.414062 -0.457031 1.4375 -0.5 L 1.453125 -0.5 L 1.453125 -0.140625 C 1.316406 -0.0234375 1.132812 0.03125 0.90625 0.03125 C 0.644531 0.03125 0.4375 -0.0507812 0.28125 -0.21875 C 0.132812 -0.382812 0.0625 -0.597656 0.0625 -0.859375 C 0.0625 -1.140625 0.144531 -1.363281 0.3125 -1.53125 C 0.46875 -1.6875 0.695312 -1.765625 1 -1.765625 Z M 1 -1.765625 "/></g></g></g><g fill="#ffffff" fill-opacity="1"><g transform="translate(7.781356, 5.073978)"><g><path d="M 0.578125 0.015625 C 0.492188 0.00390625 0.394531 0 0.28125 0 L 0.234375 0 L 0.234375 -1.734375 C 0.285156 -1.734375 0.328125 -1.734375 0.359375 -1.734375 L 0.40625 -1.734375 C 0.476562 -1.734375 0.535156 -1.738281 0.578125 -1.75 L 0.578125 -1.046875 L 1.1875 -1.046875 L 1.1875 -1.734375 C 1.257812 -1.734375 1.328125 -1.734375 1.390625 -1.734375 C 1.460938 -1.734375 1.507812 -1.738281 1.53125 -1.75 L 1.53125 0.015625 C 1.488281 0.00390625 1.40625 0 1.28125 0 L 1.1875 0 L 1.1875 -0.734375 L 0.578125 -0.734375 Z M 0.578125 0.015625 "/></g></g></g></g></g><g clip-path="url(#dd91a88f0e)"><g clip-path="url(#41921bda6d)"><path fill="url(#c4e7846882)" d="M 5.757812 20.804688 L 5.757812 1.453125 L 24.242188 1.453125 L 24.242188 20.804688 Z M 5.757812 20.804688 " fill-rule="nonzero"/></g></g></svg>