<svg xmlns="http://www.w3.org/2000/svg" xmlns:xlink="http://www.w3.org/1999/xlink" width="200" zoomAndPan="magnify" viewBox="0 0 150 74.999997" height="100" preserveAspectRatio="xMidYMid meet" version="1.0"><defs><g/><clipPath id="780496f540"><path d="M 9.234375 14.050781 L 54.058594 14.050781 L 54.058594 60.992188 L 9.234375 60.992188 Z M 9.234375 14.050781 " clip-rule="nonzero"/></clipPath><clipPath id="cbbd75af7d"><path d="M 32.875 14.066406 C 34.742188 14.175781 36.382812 15.210938 36.585938 16.476562 C 36.757812 17.90625 35.214844 19.070312 33.132812 18.984375 C 31.019531 18.949219 29.335938 17.667969 29.375 16.222656 C 29.421875 14.945312 30.996094 14.023438 32.875 14.066406 M 39.28125 57.132812 C 40.800781 56.886719 41.734375 57.503906 41.414062 58.433594 C 41.09375 59.226562 39.734375 60.066406 38.394531 60.347656 C 36.980469 60.589844 35.9375 60.167969 36.101562 59.324219 C 36.257812 58.355469 37.6875 57.34375 39.28125 57.132812 Z M 45.21875 47.234375 C 45.496094 47.058594 45.785156 46.90625 46.070312 46.789062 C 47.125 45.855469 47.960938 44.515625 48.394531 43.039062 C 48.84375 41.402344 48.796875 39.722656 48.273438 38.328125 C 48.277344 38.34375 48.277344 38.34375 48.28125 38.34375 C 47.351562 37.074219 46.914062 35.238281 47.265625 33.441406 C 47.734375 30.730469 49.757812 29.402344 51.65625 30.367188 C 53.261719 31.292969 54.25 33.894531 54.007812 36.289062 C 53.773438 37.882812 53.023438 39.128906 52.042969 39.636719 C 52.050781 39.636719 52.050781 39.636719 52.054688 39.636719 C 51.203125 40.511719 50.46875 41.886719 50.042969 43.4375 C 49.792969 44.277344 49.660156 45.105469 49.636719 45.867188 C 49.53125 47.585938 50.066406 47.359375 50.234375 48.554688 C 50.34375 49.570312 49.960938 50.847656 49.152344 52.050781 C 48.003906 53.683594 46.148438 54.949219 44.550781 55.035156 C 41.058594 54.921875 42.933594 52.082031 41.203125 50.140625 C 40.773438 49.652344 40.222656 49.226562 39.574219 48.894531 C 38.800781 48.511719 37.945312 48.269531 37.058594 48.1875 C 33.941406 47.859375 31.707031 49.484375 30.84375 52.304688 C 30.605469 53.023438 30.546875 53.734375 30.625 54.402344 C 30.675781 54.914062 31.265625 56.1875 31.265625 56.1875 C 32.359375 57.0625 32.792969 58.214844 32.304688 59.25 C 31.570312 60.613281 29.160156 61.234375 26.789062 60.808594 C 24.417969 60.238281 22.675781 58.691406 22.960938 57.179688 C 23.113281 56.492188 23.601562 55.914062 24.324219 55.503906 C 25.585938 54.75 25.9375 55.238281 27.238281 53.902344 C 27.789062 53.308594 28.210938 52.570312 28.453125 51.734375 C 29.832031 46.847656 25.492188 46.328125 26.578125 42.027344 C 27.371094 38.980469 30.542969 37.152344 33.632812 37.976562 C 33.636719 37.980469 33.636719 37.980469 33.644531 37.980469 C 34.167969 38.109375 34.679688 38.308594 35.167969 38.589844 C 39.160156 40.90625 36.203125 44.289062 40.867188 46.835938 C 42.25 47.554688 43.8125 47.6875 45.230469 47.226562 C 45.21875 47.234375 45.21875 47.234375 45.21875 47.234375 Z M 23.621094 28.574219 C 25.933594 29.828125 27.988281 29.625 29.769531 27.996094 C 31.539062 26.410156 30.8125 26.214844 31.976562 24.785156 C 32.570312 24.0625 33.445312 23.535156 34.84375 23.230469 C 41.140625 22.128906 44.445312 31.980469 37.984375 33.644531 C 36.269531 34.085938 35.019531 33.871094 33.945312 33.25 C 32.304688 32.308594 33.0625 32.160156 30.882812 31.589844 C 28.421875 30.960938 26.558594 31.832031 25.074219 34.230469 C 24.503906 36.164062 22.996094 37.679688 21.140625 38.167969 C 21.136719 38.167969 21.136719 38.167969 21.136719 38.171875 C 18.363281 38.941406 15.679688 37.179688 15.058594 34.300781 C 14.710938 32.507812 15.25 30.660156 16.355469 29.320312 C 18.101562 27.300781 18.867188 26.886719 19.269531 23.96875 C 19.421875 23.003906 19.359375 22.125 19.0625 21.417969 C 18.617188 20.316406 18.324219 20.578125 17.703125 19.972656 C 17.164062 19.457031 16.972656 18.726562 17.253906 17.859375 C 17.851562 16.300781 20.019531 14.753906 22.191406 14.238281 C 24.523438 13.84375 26.289062 14.75 26.097656 16.441406 C 26.019531 17.117188 25.695312 17.796875 25.15625 18.414062 C 23.945312 19.871094 23.367188 19.394531 22.261719 21.339844 C 21.855469 22.082031 21.59375 22.910156 21.515625 23.761719 C 21.335938 26.1875 22.046875 27.15625 23.621094 28.574219 Z M 13.898438 41.695312 C 16.269531 41.820312 18.457031 44.214844 18.644531 46.941406 C 18.894531 49.53125 17.175781 51.210938 14.964844 50.820312 C 12.964844 50.351562 11.140625 48.195312 10.722656 45.882812 C 10.414062 43.453125 11.761719 41.523438 13.898438 41.695312 Z M 12.101562 23.109375 C 13.421875 22.71875 14.324219 23.734375 14.023438 25.445312 C 13.777344 27.242188 12.359375 28.925781 10.953125 29.152344 C 9.703125 29.378906 9.023438 28.214844 9.359375 26.582031 C 9.742188 25.050781 10.929688 23.523438 12.101562 23.109375 Z M 45.683594 19.929688 C 46.894531 20.269531 48.113281 21.511719 48.441406 22.738281 C 48.757812 24.074219 47.992188 24.980469 46.691406 24.738281 C 45.304688 24.523438 43.953125 23.148438 43.730469 21.734375 C 43.492188 20.40625 44.378906 19.613281 45.683594 19.929688 Z M 45.683594 19.929688 " clip-rule="nonzero"/></clipPath><linearGradient x1="435.828713" gradientTransform="matrix(0.105017, 0, 0, -0.105017, 9.025265, 154.589783)" y1="1331.104262" x2="-4.949984" gradientUnits="userSpaceOnUse" y2="898.348883" id="d3faa974ac"><stop stop-opacity="1" stop-color="rgb(5.099487%, 93.728638%, 96.469116%)" offset="0"/><stop stop-opacity="1" stop-color="rgb(5.099487%, 93.728638%, 96.469116%)" offset="0.125"/><stop stop-opacity="1" stop-color="rgb(5.099487%, 93.728638%, 96.469116%)" offset="0.1875"/><stop stop-opacity="1" stop-color="rgb(5.099487%, 93.728638%, 96.469116%)" offset="0.21875"/><stop stop-opacity="1" stop-color="rgb(5.099487%, 93.728638%, 96.469116%)" offset="0.226563"/><stop stop-opacity="1" stop-color="rgb(5.502319%, 93.327332%, 96.473694%)" offset="0.230469"/><stop stop-opacity="1" stop-color="rgb(5.905151%, 92.927551%, 96.479797%)" offset="0.234375"/><stop stop-opacity="1" stop-color="rgb(6.552124%, 92.282104%, 96.487427%)" offset="0.238281"/><stop stop-opacity="1" stop-color="rgb(7.199097%, 91.638184%, 96.495056%)" offset="0.242188"/><stop stop-opacity="1" stop-color="rgb(7.846069%, 90.994263%, 96.502686%)" offset="0.246094"/><stop stop-opacity="1" stop-color="rgb(8.493042%, 90.350342%, 96.511841%)" offset="0.25"/><stop stop-opacity="1" stop-color="rgb(9.140015%, 89.704895%, 96.51947%)" offset="0.253906"/><stop stop-opacity="1" stop-color="rgb(9.786987%, 89.060974%, 96.528625%)" offset="0.257813"/><stop stop-opacity="1" stop-color="rgb(10.43396%, 88.417053%, 96.536255%)" offset="0.261719"/><stop stop-opacity="1" stop-color="rgb(11.080933%, 87.773132%, 96.543884%)" offset="0.265625"/><stop stop-opacity="1" stop-color="rgb(11.727905%, 87.127686%, 96.551514%)" offset="0.269531"/><stop stop-opacity="1" stop-color="rgb(12.374878%, 86.483765%, 96.560669%)" offset="0.273438"/><stop stop-opacity="1" stop-color="rgb(13.021851%, 85.838318%, 96.568298%)" offset="0.277344"/><stop stop-opacity="1" stop-color="rgb(13.668823%, 85.194397%, 96.577454%)" offset="0.28125"/><stop stop-opacity="1" stop-color="rgb(14.315796%, 84.550476%, 96.585083%)" offset="0.285156"/><stop stop-opacity="1" stop-color="rgb(14.962769%, 83.906555%, 96.592712%)" offset="0.289063"/><stop stop-opacity="1" stop-color="rgb(15.609741%, 83.261108%, 96.600342%)" offset="0.292969"/><stop stop-opacity="1" stop-color="rgb(16.256714%, 82.617188%, 96.609497%)" offset="0.296875"/><stop stop-opacity="1" stop-color="rgb(16.903687%, 81.973267%, 96.617126%)" offset="0.300781"/><stop stop-opacity="1" stop-color="rgb(17.550659%, 81.329346%, 96.626282%)" offset="0.304688"/><stop stop-opacity="1" stop-color="rgb(18.197632%, 80.683899%, 96.633911%)" offset="0.308594"/><stop stop-opacity="1" stop-color="rgb(18.844604%, 80.039978%, 96.641541%)" offset="0.3125"/><stop stop-opacity="1" stop-color="rgb(19.491577%, 79.396057%, 96.64917%)" offset="0.316406"/><stop stop-opacity="1" stop-color="rgb(20.13855%, 78.752136%, 96.658325%)" offset="0.320313"/><stop stop-opacity="1" stop-color="rgb(20.785522%, 78.106689%, 96.665955%)" offset="0.324219"/><stop stop-opacity="1" stop-color="rgb(21.432495%, 77.462769%, 96.67511%)" offset="0.328125"/><stop stop-opacity="1" stop-color="rgb(22.079468%, 76.817322%, 96.682739%)" offset="0.332031"/><stop stop-opacity="1" stop-color="rgb(22.72644%, 76.173401%, 96.691895%)" offset="0.335938"/><stop stop-opacity="1" stop-color="rgb(23.373413%, 75.52948%, 96.699524%)" offset="0.339844"/><stop stop-opacity="1" stop-color="rgb(24.020386%, 74.885559%, 96.707153%)" offset="0.34375"/><stop stop-opacity="1" stop-color="rgb(24.667358%, 74.240112%, 96.714783%)" offset="0.347656"/><stop stop-opacity="1" stop-color="rgb(25.314331%, 73.596191%, 96.723938%)" offset="0.351563"/><stop stop-opacity="1" stop-color="rgb(25.961304%, 72.952271%, 96.731567%)" offset="0.355469"/><stop stop-opacity="1" stop-color="rgb(26.608276%, 72.30835%, 96.740723%)" offset="0.359375"/><stop stop-opacity="1" stop-color="rgb(27.255249%, 71.662903%, 96.748352%)" offset="0.363281"/><stop stop-opacity="1" stop-color="rgb(27.902222%, 71.018982%, 96.755981%)" offset="0.367188"/><stop stop-opacity="1" stop-color="rgb(28.549194%, 70.375061%, 96.763611%)" offset="0.371094"/><stop stop-opacity="1" stop-color="rgb(29.196167%, 69.73114%, 96.772766%)" offset="0.375"/><stop stop-opacity="1" stop-color="rgb(29.84314%, 69.085693%, 96.780396%)" offset="0.378906"/><stop stop-opacity="1" stop-color="rgb(30.490112%, 68.441772%, 96.789551%)" offset="0.382813"/><stop stop-opacity="1" stop-color="rgb(31.137085%, 67.797852%, 96.79718%)" offset="0.386719"/><stop stop-opacity="1" stop-color="rgb(31.784058%, 67.153931%, 96.80481%)" offset="0.390625"/><stop stop-opacity="1" stop-color="rgb(32.43103%, 66.508484%, 96.812439%)" offset="0.394531"/><stop stop-opacity="1" stop-color="rgb(33.078003%, 65.864563%, 96.821594%)" offset="0.398438"/><stop stop-opacity="1" stop-color="rgb(33.724976%, 65.219116%, 96.829224%)" offset="0.402344"/><stop stop-opacity="1" stop-color="rgb(34.371948%, 64.575195%, 96.838379%)" offset="0.40625"/><stop stop-opacity="1" stop-color="rgb(35.018921%, 63.931274%, 96.846008%)" offset="0.410156"/><stop stop-opacity="1" stop-color="rgb(35.665894%, 63.287354%, 96.853638%)" offset="0.414063"/><stop stop-opacity="1" stop-color="rgb(36.312866%, 62.641907%, 96.861267%)" offset="0.417969"/><stop stop-opacity="1" stop-color="rgb(36.959839%, 61.997986%, 96.870422%)" offset="0.421875"/><stop stop-opacity="1" stop-color="rgb(37.606812%, 61.354065%, 96.878052%)" offset="0.425781"/><stop stop-opacity="1" stop-color="rgb(38.253784%, 60.710144%, 96.887207%)" offset="0.429688"/><stop stop-opacity="1" stop-color="rgb(38.900757%, 60.064697%, 96.894836%)" offset="0.433594"/><stop stop-opacity="1" stop-color="rgb(39.547729%, 59.420776%, 96.902466%)" offset="0.4375"/><stop stop-opacity="1" stop-color="rgb(40.194702%, 58.776855%, 96.910095%)" offset="0.441406"/><stop stop-opacity="1" stop-color="rgb(40.841675%, 58.132935%, 96.91925%)" offset="0.445313"/><stop stop-opacity="1" stop-color="rgb(41.488647%, 57.487488%, 96.92688%)" offset="0.449219"/><stop stop-opacity="1" stop-color="rgb(42.13562%, 56.843567%, 96.936035%)" offset="0.453125"/><stop stop-opacity="1" stop-color="rgb(42.782593%, 56.19812%, 96.943665%)" offset="0.457031"/><stop stop-opacity="1" stop-color="rgb(43.429565%, 55.554199%, 96.951294%)" offset="0.460938"/><stop stop-opacity="1" stop-color="rgb(44.076538%, 54.910278%, 96.958923%)" offset="0.464844"/><stop stop-opacity="1" stop-color="rgb(44.723511%, 54.266357%, 96.968079%)" offset="0.46875"/><stop stop-opacity="1" stop-color="rgb(45.370483%, 53.620911%, 96.975708%)" offset="0.472656"/><stop stop-opacity="1" stop-color="rgb(46.017456%, 52.97699%, 96.984863%)" offset="0.476563"/><stop stop-opacity="1" stop-color="rgb(46.664429%, 52.333069%, 96.992493%)" offset="0.480469"/><stop stop-opacity="1" stop-color="rgb(47.311401%, 51.689148%, 97.000122%)" offset="0.484375"/><stop stop-opacity="1" stop-color="rgb(47.958374%, 51.043701%, 97.007751%)" offset="0.488281"/><stop stop-opacity="1" stop-color="rgb(48.605347%, 50.39978%, 97.016907%)" offset="0.492188"/><stop stop-opacity="1" stop-color="rgb(49.252319%, 49.755859%, 97.024536%)" offset="0.496094"/><stop stop-opacity="1" stop-color="rgb(49.899292%, 49.111938%, 97.033691%)" offset="0.5"/><stop stop-opacity="1" stop-color="rgb(50.546265%, 48.466492%, 97.041321%)" offset="0.503906"/><stop stop-opacity="1" stop-color="rgb(51.193237%, 47.822571%, 97.04895%)" offset="0.507812"/><stop stop-opacity="1" stop-color="rgb(51.84021%, 47.177124%, 97.05658%)" offset="0.511719"/><stop stop-opacity="1" stop-color="rgb(52.487183%, 46.533203%, 97.065735%)" offset="0.515625"/><stop stop-opacity="1" stop-color="rgb(53.134155%, 45.889282%, 97.073364%)" offset="0.519531"/><stop stop-opacity="1" stop-color="rgb(53.781128%, 45.245361%, 97.08252%)" offset="0.523437"/><stop stop-opacity="1" stop-color="rgb(54.428101%, 44.599915%, 97.090149%)" offset="0.527344"/><stop stop-opacity="1" stop-color="rgb(55.075073%, 43.955994%, 97.097778%)" offset="0.53125"/><stop stop-opacity="1" stop-color="rgb(55.722046%, 43.312073%, 97.105408%)" offset="0.535156"/><stop stop-opacity="1" stop-color="rgb(56.369019%, 42.668152%, 97.114563%)" offset="0.539062"/><stop stop-opacity="1" stop-color="rgb(57.015991%, 42.022705%, 97.122192%)" offset="0.542969"/><stop stop-opacity="1" stop-color="rgb(57.662964%, 41.378784%, 97.131348%)" offset="0.546875"/><stop stop-opacity="1" stop-color="rgb(58.309937%, 40.734863%, 97.138977%)" offset="0.550781"/><stop stop-opacity="1" stop-color="rgb(58.956909%, 40.090942%, 97.146606%)" offset="0.554687"/><stop stop-opacity="1" stop-color="rgb(59.603882%, 39.445496%, 97.154236%)" offset="0.558594"/><stop stop-opacity="1" stop-color="rgb(60.250854%, 38.801575%, 97.163391%)" offset="0.5625"/><stop stop-opacity="1" stop-color="rgb(60.897827%, 38.156128%, 97.171021%)" offset="0.566406"/><stop stop-opacity="1" stop-color="rgb(61.5448%, 37.512207%, 97.180176%)" offset="0.570312"/><stop stop-opacity="1" stop-color="rgb(62.191772%, 36.868286%, 97.187805%)" offset="0.574219"/><stop stop-opacity="1" stop-color="rgb(62.838745%, 36.224365%, 97.19696%)" offset="0.578125"/><stop stop-opacity="1" stop-color="rgb(63.485718%, 35.578918%, 97.20459%)" offset="0.582031"/><stop stop-opacity="1" stop-color="rgb(64.13269%, 34.934998%, 97.212219%)" offset="0.585938"/><stop stop-opacity="1" stop-color="rgb(64.779663%, 34.291077%, 97.219849%)" offset="0.589844"/><stop stop-opacity="1" stop-color="rgb(65.426636%, 33.647156%, 97.229004%)" offset="0.59375"/><stop stop-opacity="1" stop-color="rgb(66.073608%, 33.001709%, 97.236633%)" offset="0.597656"/><stop stop-opacity="1" stop-color="rgb(66.720581%, 32.357788%, 97.245789%)" offset="0.601562"/><stop stop-opacity="1" stop-color="rgb(67.367554%, 31.713867%, 97.253418%)" offset="0.605469"/><stop stop-opacity="1" stop-color="rgb(68.014526%, 31.069946%, 97.261047%)" offset="0.609375"/><stop stop-opacity="1" stop-color="rgb(68.661499%, 30.4245%, 97.268677%)" offset="0.613281"/><stop stop-opacity="1" stop-color="rgb(69.308472%, 29.780579%, 97.277832%)" offset="0.617188"/><stop stop-opacity="1" stop-color="rgb(69.955444%, 29.136658%, 97.285461%)" offset="0.621094"/><stop stop-opacity="1" stop-color="rgb(70.602417%, 28.492737%, 97.294617%)" offset="0.625"/><stop stop-opacity="1" stop-color="rgb(71.24939%, 27.84729%, 97.302246%)" offset="0.628906"/><stop stop-opacity="1" stop-color="rgb(71.896362%, 27.203369%, 97.309875%)" offset="0.632812"/><stop stop-opacity="1" stop-color="rgb(72.543335%, 26.557922%, 97.317505%)" offset="0.636719"/><stop stop-opacity="1" stop-color="rgb(73.190308%, 25.914001%, 97.32666%)" offset="0.640625"/><stop stop-opacity="1" stop-color="rgb(73.83728%, 25.270081%, 97.33429%)" offset="0.644531"/><stop stop-opacity="1" stop-color="rgb(74.484253%, 24.62616%, 97.343445%)" offset="0.648438"/><stop stop-opacity="1" stop-color="rgb(75.131226%, 23.980713%, 97.351074%)" offset="0.652344"/><stop stop-opacity="1" stop-color="rgb(75.778198%, 23.336792%, 97.358704%)" offset="0.65625"/><stop stop-opacity="1" stop-color="rgb(76.425171%, 22.692871%, 97.366333%)" offset="0.660156"/><stop stop-opacity="1" stop-color="rgb(77.072144%, 22.04895%, 97.375488%)" offset="0.664062"/><stop stop-opacity="1" stop-color="rgb(77.719116%, 21.403503%, 97.383118%)" offset="0.667969"/><stop stop-opacity="1" stop-color="rgb(78.366089%, 20.759583%, 97.392273%)" offset="0.671875"/><stop stop-opacity="1" stop-color="rgb(79.013062%, 20.115662%, 97.399902%)" offset="0.675781"/><stop stop-opacity="1" stop-color="rgb(79.660034%, 19.471741%, 97.407532%)" offset="0.679688"/><stop stop-opacity="1" stop-color="rgb(80.307007%, 18.826294%, 97.415161%)" offset="0.683594"/><stop stop-opacity="1" stop-color="rgb(80.953979%, 18.182373%, 97.424316%)" offset="0.6875"/><stop stop-opacity="1" stop-color="rgb(81.600952%, 17.536926%, 97.431946%)" offset="0.691406"/><stop stop-opacity="1" stop-color="rgb(82.247925%, 16.893005%, 97.441101%)" offset="0.695312"/><stop stop-opacity="1" stop-color="rgb(82.894897%, 16.249084%, 97.44873%)" offset="0.699219"/><stop stop-opacity="1" stop-color="rgb(83.54187%, 15.605164%, 97.45636%)" offset="0.703125"/><stop stop-opacity="1" stop-color="rgb(84.188843%, 14.959717%, 97.463989%)" offset="0.707031"/><stop stop-opacity="1" stop-color="rgb(84.835815%, 14.315796%, 97.473145%)" offset="0.710938"/><stop stop-opacity="1" stop-color="rgb(85.482788%, 13.671875%, 97.480774%)" offset="0.714844"/><stop stop-opacity="1" stop-color="rgb(86.129761%, 13.027954%, 97.489929%)" offset="0.71875"/><stop stop-opacity="1" stop-color="rgb(86.776733%, 12.382507%, 97.497559%)" offset="0.722656"/><stop stop-opacity="1" stop-color="rgb(87.423706%, 11.738586%, 97.505188%)" offset="0.726562"/><stop stop-opacity="1" stop-color="rgb(88.070679%, 11.094666%, 97.512817%)" offset="0.730469"/><stop stop-opacity="1" stop-color="rgb(88.717651%, 10.450745%, 97.521973%)" offset="0.734375"/><stop stop-opacity="1" stop-color="rgb(89.364624%, 9.805298%, 97.529602%)" offset="0.738281"/><stop stop-opacity="1" stop-color="rgb(90.011597%, 9.161377%, 97.538757%)" offset="0.742188"/><stop stop-opacity="1" stop-color="rgb(90.658569%, 8.51593%, 97.546387%)" offset="0.746094"/><stop stop-opacity="1" stop-color="rgb(91.305542%, 7.872009%, 97.554016%)" offset="0.75"/><stop stop-opacity="1" stop-color="rgb(91.952515%, 7.228088%, 97.561646%)" offset="0.753906"/><stop stop-opacity="1" stop-color="rgb(92.599487%, 6.584167%, 97.570801%)" offset="0.757812"/><stop stop-opacity="1" stop-color="rgb(93.24646%, 5.938721%, 97.57843%)" offset="0.761719"/><stop stop-opacity="1" stop-color="rgb(93.893433%, 5.2948%, 97.587585%)" offset="0.765625"/><stop stop-opacity="1" stop-color="rgb(94.540405%, 4.650879%, 97.595215%)" offset="0.769531"/><stop stop-opacity="1" stop-color="rgb(95.187378%, 4.006958%, 97.602844%)" offset="0.773438"/><stop stop-opacity="1" stop-color="rgb(95.834351%, 3.361511%, 97.610474%)" offset="0.777344"/><stop stop-opacity="1" stop-color="rgb(96.481323%, 2.71759%, 97.619629%)" offset="0.78125"/><stop stop-opacity="1" stop-color="rgb(97.128296%, 2.073669%, 97.627258%)" offset="0.785156"/><stop stop-opacity="1" stop-color="rgb(97.775269%, 1.429749%, 97.636414%)" offset="0.789062"/><stop stop-opacity="1" stop-color="rgb(98.297119%, 0.909424%, 97.642517%)" offset="0.792969"/><stop stop-opacity="1" stop-color="rgb(98.81897%, 0.389099%, 97.648621%)" offset="0.796875"/><stop stop-opacity="1" stop-color="rgb(98.81897%, 0.389099%, 97.648621%)" offset="0.8125"/><stop stop-opacity="1" stop-color="rgb(98.81897%, 0.389099%, 97.648621%)" offset="0.875"/><stop stop-opacity="1" stop-color="rgb(98.81897%, 0.389099%, 97.648621%)" offset="1"/></linearGradient></defs><rect x="-15" width="180" fill="#ffffff" y="-7.5" height="89.999996" fill-opacity="1"/><rect x="-15" width="180" fill="#02182e" y="-7.5" height="89.999996" fill-opacity="1"/><g fill="#ffffff" fill-opacity="1"><g transform="translate(57.183634, 35.999996)"><g><path d="M 5.203125 -0.5 C 4.953125 -0.300781 4.625 -0.144531 4.21875 -0.03125 C 3.820312 0.0703125 3.332031 0.125 2.75 0.125 C 2.164062 0.125 1.546875 0.0703125 0.890625 -0.03125 L 0.890625 -6.796875 C 1.546875 -6.898438 2.117188 -6.953125 2.609375 -6.953125 C 3.097656 -6.953125 3.5 -6.90625 3.8125 -6.8125 C 4.125 -6.726562 4.378906 -6.601562 4.578125 -6.4375 C 4.972656 -6.132812 5.171875 -5.738281 5.171875 -5.25 C 5.171875 -4.769531 4.992188 -4.375 4.640625 -4.0625 C 5.054688 -3.925781 5.378906 -3.675781 5.609375 -3.3125 C 5.816406 -2.988281 5.921875 -2.628906 5.921875 -2.234375 C 5.921875 -1.835938 5.863281 -1.5 5.75 -1.21875 C 5.632812 -0.9375 5.453125 -0.695312 5.203125 -0.5 Z M 2.25 -4.25 C 2.382812 -4.21875 2.5625 -4.203125 2.78125 -4.203125 C 3 -4.203125 3.175781 -4.226562 3.3125 -4.28125 C 3.445312 -4.34375 3.554688 -4.421875 3.640625 -4.515625 C 3.753906 -4.648438 3.8125 -4.84375 3.8125 -5.09375 C 3.8125 -5.613281 3.503906 -5.875 2.890625 -5.875 C 2.628906 -5.875 2.414062 -5.863281 2.25 -5.84375 Z M 3 -3.140625 C 2.71875 -3.140625 2.46875 -3.125 2.25 -3.09375 L 2.25 -1.078125 C 2.488281 -1.015625 2.738281 -0.984375 3 -0.984375 C 3.257812 -0.984375 3.488281 -1.015625 3.6875 -1.078125 C 3.894531 -1.140625 4.066406 -1.222656 4.203125 -1.328125 C 4.472656 -1.554688 4.609375 -1.847656 4.609375 -2.203125 C 4.609375 -2.828125 4.070312 -3.140625 3 -3.140625 Z M 3 -3.140625 "/></g></g></g><g fill="#ffffff" fill-opacity="1"><g transform="translate(64.799562, 35.999996)"><g><path d="M 4.78125 -6.859375 C 4.988281 -6.835938 5.160156 -6.828125 5.296875 -6.828125 L 5.734375 -6.828125 C 5.878906 -6.828125 6.03125 -6.84375 6.1875 -6.875 L 6.1875 -2.625 C 6.1875 -1.78125 5.929688 -1.101562 5.421875 -0.59375 C 4.929688 -0.113281 4.320312 0.125 3.59375 0.125 C 2.800781 0.125 2.15625 -0.0820312 1.65625 -0.5 C 1.113281 -0.957031 0.84375 -1.625 0.84375 -2.5 L 0.84375 -6.859375 C 1.125 -6.835938 1.390625 -6.828125 1.640625 -6.828125 C 1.890625 -6.828125 2.097656 -6.84375 2.265625 -6.875 L 2.265625 -2.4375 C 2.265625 -2.007812 2.394531 -1.675781 2.65625 -1.4375 C 2.90625 -1.21875 3.210938 -1.109375 3.578125 -1.109375 C 4.128906 -1.109375 4.492188 -1.390625 4.671875 -1.953125 C 4.742188 -2.148438 4.78125 -2.398438 4.78125 -2.703125 Z M 4.78125 -6.859375 "/></g></g></g><g fill="#ffffff" fill-opacity="1"><g transform="translate(73.293172, 35.999996)"><g><path d="M 5.203125 -0.5 C 4.953125 -0.300781 4.625 -0.144531 4.21875 -0.03125 C 3.820312 0.0703125 3.332031 0.125 2.75 0.125 C 2.164062 0.125 1.546875 0.0703125 0.890625 -0.03125 L 0.890625 -6.796875 C 1.546875 -6.898438 2.117188 -6.953125 2.609375 -6.953125 C 3.097656 -6.953125 3.5 -6.90625 3.8125 -6.8125 C 4.125 -6.726562 4.378906 -6.601562 4.578125 -6.4375 C 4.972656 -6.132812 5.171875 -5.738281 5.171875 -5.25 C 5.171875 -4.769531 4.992188 -4.375 4.640625 -4.0625 C 5.054688 -3.925781 5.378906 -3.675781 5.609375 -3.3125 C 5.816406 -2.988281 5.921875 -2.628906 5.921875 -2.234375 C 5.921875 -1.835938 5.863281 -1.5 5.75 -1.21875 C 5.632812 -0.9375 5.453125 -0.695312 5.203125 -0.5 Z M 2.25 -4.25 C 2.382812 -4.21875 2.5625 -4.203125 2.78125 -4.203125 C 3 -4.203125 3.175781 -4.226562 3.3125 -4.28125 C 3.445312 -4.34375 3.554688 -4.421875 3.640625 -4.515625 C 3.753906 -4.648438 3.8125 -4.84375 3.8125 -5.09375 C 3.8125 -5.613281 3.503906 -5.875 2.890625 -5.875 C 2.628906 -5.875 2.414062 -5.863281 2.25 -5.84375 Z M 3 -3.140625 C 2.71875 -3.140625 2.46875 -3.125 2.25 -3.09375 L 2.25 -1.078125 C 2.488281 -1.015625 2.738281 -0.984375 3 -0.984375 C 3.257812 -0.984375 3.488281 -1.015625 3.6875 -1.078125 C 3.894531 -1.140625 4.066406 -1.222656 4.203125 -1.328125 C 4.472656 -1.554688 4.609375 -1.847656 4.609375 -2.203125 C 4.609375 -2.828125 4.070312 -3.140625 3 -3.140625 Z M 3 -3.140625 "/></g></g></g><g fill="#ffffff" fill-opacity="1"><g transform="translate(80.9091, 35.999996)"><g><path d="M 5.203125 -0.5 C 4.953125 -0.300781 4.625 -0.144531 4.21875 -0.03125 C 3.820312 0.0703125 3.332031 0.125 2.75 0.125 C 2.164062 0.125 1.546875 0.0703125 0.890625 -0.03125 L 0.890625 -6.796875 C 1.546875 -6.898438 2.117188 -6.953125 2.609375 -6.953125 C 3.097656 -6.953125 3.5 -6.90625 3.8125 -6.8125 C 4.125 -6.726562 4.378906 -6.601562 4.578125 -6.4375 C 4.972656 -6.132812 5.171875 -5.738281 5.171875 -5.25 C 5.171875 -4.769531 4.992188 -4.375 4.640625 -4.0625 C 5.054688 -3.925781 5.378906 -3.675781 5.609375 -3.3125 C 5.816406 -2.988281 5.921875 -2.628906 5.921875 -2.234375 C 5.921875 -1.835938 5.863281 -1.5 5.75 -1.21875 C 5.632812 -0.9375 5.453125 -0.695312 5.203125 -0.5 Z M 2.25 -4.25 C 2.382812 -4.21875 2.5625 -4.203125 2.78125 -4.203125 C 3 -4.203125 3.175781 -4.226562 3.3125 -4.28125 C 3.445312 -4.34375 3.554688 -4.421875 3.640625 -4.515625 C 3.753906 -4.648438 3.8125 -4.84375 3.8125 -5.09375 C 3.8125 -5.613281 3.503906 -5.875 2.890625 -5.875 C 2.628906 -5.875 2.414062 -5.863281 2.25 -5.84375 Z M 3 -3.140625 C 2.71875 -3.140625 2.46875 -3.125 2.25 -3.09375 L 2.25 -1.078125 C 2.488281 -1.015625 2.738281 -0.984375 3 -0.984375 C 3.257812 -0.984375 3.488281 -1.015625 3.6875 -1.078125 C 3.894531 -1.140625 4.066406 -1.222656 4.203125 -1.328125 C 4.472656 -1.554688 4.609375 -1.847656 4.609375 -2.203125 C 4.609375 -2.828125 4.070312 -3.140625 3 -3.140625 Z M 3 -3.140625 "/></g></g></g><g fill="#ffffff" fill-opacity="1"><g transform="translate(88.525028, 35.999996)"><g><path d="M 1.890625 0 C 1.378906 0 1.046875 0.0078125 0.890625 0.03125 L 0.890625 -6.859375 C 0.960938 -6.835938 1.128906 -6.828125 1.390625 -6.828125 C 1.648438 -6.828125 1.953125 -6.832031 2.296875 -6.84375 L 2.296875 -1.234375 L 3.359375 -1.234375 C 3.660156 -1.234375 3.90625 -1.242188 4.09375 -1.265625 C 4.070312 -0.460938 4.0625 -0.046875 4.0625 -0.015625 L 4.0625 0.03125 C 3.726562 0.0078125 3.164062 0 2.375 0 Z M 1.890625 0 "/></g></g></g><g fill="#ffffff" fill-opacity="1"><g transform="translate(94.385581, 35.999996)"><g><path d="M 4.3125 -1.234375 C 4.53125 -1.234375 4.679688 -1.253906 4.765625 -1.296875 L 4.78125 -1.28125 L 4.734375 0 L 0.890625 0 L 0.890625 -6.859375 C 0.972656 -6.859375 1.070312 -6.851562 1.1875 -6.84375 L 1.546875 -6.84375 C 1.785156 -6.832031 2.046875 -6.828125 2.328125 -6.828125 C 3.109375 -6.828125 3.882812 -6.84375 4.65625 -6.875 C 4.613281 -6.570312 4.59375 -6.164062 4.59375 -5.65625 C 4.59375 -5.601562 4.597656 -5.566406 4.609375 -5.546875 L 4.59375 -5.53125 C 4.414062 -5.582031 4.164062 -5.609375 3.84375 -5.609375 L 2.21875 -5.609375 L 2.21875 -4.296875 L 3.4375 -4.296875 C 3.8125 -4.296875 4.039062 -4.304688 4.125 -4.328125 L 4.140625 -3.0625 C 3.972656 -3.070312 3.757812 -3.078125 3.5 -3.078125 L 2.21875 -3.078125 L 2.21875 -1.234375 Z M 4.3125 -1.234375 "/></g></g></g><g fill="#ffffff" fill-opacity="1"><g transform="translate(57.183634, 44.999995)"><g><path d="M 3.34375 0.03125 C 3.175781 0.0078125 2.753906 0 2.078125 0 L 1.921875 0 L 1.921875 -5.671875 L 0.90625 -5.671875 C 0.601562 -5.671875 0.421875 -5.65625 0.359375 -5.625 C 0.304688 -5.601562 0.265625 -5.578125 0.234375 -5.546875 L 0.21875 -5.5625 L 0.21875 -6.875 L 0.234375 -6.890625 C 0.347656 -6.847656 0.65625 -6.828125 1.15625 -6.828125 L 4.375 -6.828125 C 4.675781 -6.828125 4.851562 -6.84375 4.90625 -6.875 C 4.957031 -6.90625 5 -6.929688 5.03125 -6.953125 L 5.046875 -6.953125 L 5.046875 -5.640625 L 5.03125 -5.625 C 4.914062 -5.65625 4.613281 -5.671875 4.125 -5.671875 L 3.34375 -5.671875 Z M 3.34375 0.03125 "/></g></g></g><g fill="#ffffff" fill-opacity="1"><g transform="translate(63.921869, 44.999995)"><g><path d="M 4.3125 -1.234375 C 4.53125 -1.234375 4.679688 -1.253906 4.765625 -1.296875 L 4.78125 -1.28125 L 4.734375 0 L 0.890625 0 L 0.890625 -6.859375 C 0.972656 -6.859375 1.070312 -6.851562 1.1875 -6.84375 L 1.546875 -6.84375 C 1.785156 -6.832031 2.046875 -6.828125 2.328125 -6.828125 C 3.109375 -6.828125 3.882812 -6.84375 4.65625 -6.875 C 4.613281 -6.570312 4.59375 -6.164062 4.59375 -5.65625 C 4.59375 -5.601562 4.597656 -5.566406 4.609375 -5.546875 L 4.59375 -5.53125 C 4.414062 -5.582031 4.164062 -5.609375 3.84375 -5.609375 L 2.21875 -5.609375 L 2.21875 -4.296875 L 3.4375 -4.296875 C 3.8125 -4.296875 4.039062 -4.304688 4.125 -4.328125 L 4.140625 -3.0625 C 3.972656 -3.070312 3.757812 -3.078125 3.5 -3.078125 L 2.21875 -3.078125 L 2.21875 -1.234375 Z M 4.3125 -1.234375 "/></g></g></g><g fill="#ffffff" fill-opacity="1"><g transform="translate(70.660104, 44.999995)"><g><path d="M 3.9375 -6.953125 C 4.582031 -6.953125 5.128906 -6.84375 5.578125 -6.625 L 5.578125 -5.046875 C 5.378906 -5.335938 4.972656 -5.53125 4.359375 -5.625 C 4.179688 -5.65625 3.953125 -5.671875 3.671875 -5.671875 C 3.390625 -5.671875 3.113281 -5.617188 2.84375 -5.515625 C 2.582031 -5.410156 2.367188 -5.265625 2.203125 -5.078125 C 1.867188 -4.703125 1.703125 -4.164062 1.703125 -3.46875 C 1.703125 -2.664062 1.910156 -2.066406 2.328125 -1.671875 C 2.679688 -1.347656 3.144531 -1.1875 3.71875 -1.1875 C 4.363281 -1.1875 4.890625 -1.328125 5.296875 -1.609375 C 5.441406 -1.703125 5.566406 -1.820312 5.671875 -1.96875 L 5.6875 -1.96875 L 5.6875 -0.53125 C 5.164062 -0.09375 4.460938 0.125 3.578125 0.125 C 2.523438 0.125 1.707031 -0.207031 1.125 -0.875 C 0.550781 -1.5 0.265625 -2.335938 0.265625 -3.390625 C 0.265625 -4.492188 0.578125 -5.363281 1.203125 -6 C 1.828125 -6.632812 2.738281 -6.953125 3.9375 -6.953125 Z M 3.9375 -6.953125 "/></g></g></g><g fill="#ffffff" fill-opacity="1"><g transform="translate(78.229832, 44.999995)"><g><path d="M 2.265625 0.03125 C 1.941406 0.0078125 1.550781 0 1.09375 0 L 0.9375 0 L 0.9375 -6.859375 C 1.144531 -6.835938 1.296875 -6.828125 1.390625 -6.828125 L 1.59375 -6.828125 C 1.863281 -6.828125 2.085938 -6.84375 2.265625 -6.875 L 2.265625 -4.140625 L 4.6875 -4.140625 L 4.6875 -6.859375 C 4.96875 -6.835938 5.242188 -6.828125 5.515625 -6.828125 C 5.785156 -6.828125 5.953125 -6.84375 6.015625 -6.875 L 6.015625 0.03125 C 5.847656 0.0078125 5.523438 0 5.046875 0 L 4.6875 0 L 4.6875 -2.90625 L 2.265625 -2.90625 Z M 2.265625 0.03125 "/></g></g></g><g clip-path="url(#780496f540)"><g clip-path="url(#cbbd75af7d)"><path fill="url(#d3faa974ac)" d="M 9.234375 60.992188 L 9.234375 14.050781 L 54.058594 14.050781 L 54.058594 60.992188 Z M 9.234375 60.992188 " fill-rule="nonzero"/></g></g></svg>